<svg xmlns="http://www.w3.org/2000/svg" width="649" height="689" viewBox="0 0 649 689" version="1.1"><path d="M 316 52.113 L 316 63.226 323.011 62.830 C 331.415 62.355, 334.845 59.792, 335.627 53.403 C 336.589 45.548, 330.972 41.020, 320.250 41.006 L 316 41 316 52.113 M 339.929 45.493 C 339.890 47.147, 339.544 51.941, 339.161 56.146 L 338.464 63.792 342.871 64.396 C 350.880 65.493, 352.175 65.255, 351.820 62.750 C 351.575 61.025, 350.741 60.427, 348.250 60.187 C 345.810 59.951, 345 59.391, 345 57.937 C 345 56.390, 345.705 56, 348.500 56 C 351.333 56, 352 55.619, 352 54 C 352 52.597, 351.328 51.995, 349.750 51.985 C 348.512 51.976, 346.880 51.577, 346.122 51.096 C 343.813 49.634, 345.890 48, 350.059 48 C 353.321 48, 354 47.659, 354 46.019 C 354 43.841, 352.330 43.256, 344.750 42.783 L 340 42.486 339.929 45.493 M 289.186 48.632 C 289.672 51.730, 289.909 54.424, 289.714 54.619 C 289.519 54.814, 287.290 52.578, 284.761 49.648 C 280.828 45.093, 279.747 44.384, 277.286 44.745 L 274.409 45.167 275.639 53.833 C 276.315 58.600, 276.898 63.288, 276.934 64.250 C 276.982 65.523, 277.838 66, 280.072 66 L 283.144 66 282.518 60.250 L 281.892 54.500 286.575 59.489 C 290.271 63.427, 291.810 64.407, 293.879 64.142 C 295.321 63.957, 296.649 63.663, 296.831 63.488 C 297.160 63.173, 295.382 49.558, 294.449 45.250 C 294.084 43.562, 293.256 43, 291.132 43 L 288.303 43 289.186 48.632 M 361.500 44.703 C 358.743 45.345, 357 47.853, 357 51.179 C 357 53.343, 357.884 54.533, 360.916 56.447 C 365.742 59.494, 366.632 60.820, 364.419 61.670 C 363.372 62.071, 362.240 61.681, 361.495 60.662 C 360.213 58.908, 355 58.332, 355 59.944 C 355 62.156, 359.729 66.104, 363 66.624 C 365.653 67.046, 367.166 66.657, 369.250 65.018 C 373.433 61.728, 372.896 58.590, 367.500 54.787 C 363.090 51.678, 361.645 49, 364.378 49 C 365.135 49, 366.315 49.675, 367 50.500 C 367.685 51.325, 369.315 52, 370.622 52 C 372.069 52, 373 51.413, 373 50.500 C 373 48.600, 369.453 45, 367.582 45 C 366.802 45, 365.564 44.828, 364.832 44.619 C 364.099 44.409, 362.600 44.447, 361.500 44.703 M 322 52 L 322 58 324.345 58 C 329.562 58, 332.019 50.527, 327.777 47.557 C 323.282 44.408, 322 45.395, 322 52 M 258.388 48.688 C 257.226 48.916, 254.976 50.459, 253.388 52.117 C 247.665 58.091, 250.327 67.303, 258.561 70.020 C 265.088 72.174, 272.200 66.763, 272.200 59.644 C 272.200 55.169, 270.583 52.326, 266.686 49.950 C 263.538 48.030, 262.519 47.875, 258.388 48.688 M 378.960 58.059 C 374.162 65.195, 373.086 67.440, 374.141 68.108 C 376.230 69.432, 378.811 69.160, 379.729 67.520 C 380.957 65.326, 388 67.386, 388 69.939 C 388 71.701, 392.549 73.784, 393.758 72.575 C 394.199 72.134, 392.201 50.803, 391.679 50.379 C 391.580 50.299, 390.069 49.927, 388.319 49.553 L 385.138 48.871 378.960 58.059 M 240.750 53.689 C 238.470 54.285, 238.610 55.804, 241.886 66 C 244.370 73.728, 244.834 74.475, 246.997 74.228 C 248.306 74.079, 249.561 73.772, 249.787 73.546 C 250.430 72.903, 244.029 52.986, 243.221 53.116 C 242.824 53.180, 241.713 53.438, 240.750 53.689 M 399.850 63.007 C 397.013 71.663, 396.753 73.232, 398.021 74.034 C 400.632 75.685, 401.819 75.080, 403.003 71.491 C 404.314 67.520, 406 67.732, 406 71.868 C 406 75.217, 407.717 77.565, 410.849 78.498 C 412.809 79.082, 413.111 78.892, 412.673 77.349 C 410.774 70.648, 410.811 69, 412.864 69 C 415.235 69, 418 65.465, 418 62.432 C 418 59.864, 415.607 57.559, 410.963 55.658 C 402.815 52.321, 403.502 51.866, 399.850 63.007 M 256.804 56.530 C 254.052 62.572, 261.938 68.077, 265.517 62.614 C 267.930 58.932, 265.747 54.622, 261.250 54.187 C 258.568 53.928, 257.807 54.329, 256.804 56.530 M 384.840 58.940 C 383.039 62.096, 383.334 63, 386.167 63 C 388.065 63, 388.258 62.072, 387.150 58.266 L 386.500 56.032 384.840 58.940 M 224.500 59.380 C 219.835 61.474, 217.545 64.654, 217.545 69.037 C 217.545 73.453, 220.296 77.821, 224.319 79.794 C 229.898 82.531, 239 77.305, 239 71.365 C 239 70.064, 238.745 69, 238.434 69 C 237.094 69, 233.395 71.465, 232.193 73.159 C 230.405 75.679, 226.451 75.481, 224.557 72.777 C 221.286 68.109, 223.989 63.427, 229.404 64.381 C 231.146 64.687, 233.554 64.342, 234.911 63.592 L 237.322 62.257 234.911 60.696 C 231.247 58.324, 227.817 57.891, 224.500 59.380 M 302.828 58.674 C 301.266 59.088, 299.137 66.471, 300.258 67.591 C 301.476 68.809, 303.834 66.498, 304.857 63.082 C 306.513 57.557, 306.571 57.684, 302.828 58.674 M 406.363 61.497 C 406.017 62.398, 406.196 63.596, 406.761 64.161 C 408.391 65.791, 411.500 64.692, 411.500 62.486 C 411.500 59.943, 407.272 59.128, 406.363 61.497 M 419.382 70.762 L 415.264 80.500 417.882 81.683 L 420.500 82.866 421.886 79.433 C 423.771 74.762, 425 75.120, 425 80.339 C 425 84.019, 425.387 84.855, 427.547 85.839 C 431.224 87.515, 431.309 87.432, 430.772 82.666 L 430.283 78.332 433.120 77.261 C 434.680 76.672, 436.488 75.022, 437.139 73.595 C 439.020 69.467, 436.976 66.406, 430.395 63.496 C 427.291 62.123, 424.470 61.005, 424.126 61.012 C 423.782 61.018, 421.647 65.406, 419.382 70.762 M 201.250 69.220 C 199.449 70.089, 199.007 71.124, 199.033 74.403 C 199.073 79.466, 200.646 91.979, 201.327 92.661 C 202.368 93.701, 206 90.849, 206 88.990 C 206 86.072, 211.603 83.449, 214.511 85.006 C 216.265 85.944, 217.260 85.931, 219.103 84.945 L 221.456 83.685 212.978 75.850 C 208.315 71.540, 204.275 68.042, 204 68.075 C 203.725 68.108, 202.488 68.624, 201.250 69.220 M 426.380 69.452 C 425.611 71.455, 426.752 73, 429 73 C 431.500 73, 432.463 71.263, 430.964 69.456 C 429.414 67.589, 427.096 67.586, 426.380 69.452 M 440.527 76.273 C 437.611 79.189, 437 80.527, 437 84 C 437 87.443, 437.613 88.813, 440.400 91.600 C 443.187 94.387, 444.557 95, 448 95 C 451.443 95, 452.813 94.387, 455.600 91.600 C 462.518 84.682, 458.669 74.393, 448.745 73.275 C 444.396 72.785, 443.797 73.003, 440.527 76.273 M 204.787 79 C 205.221 81.958, 207.258 83.010, 208.539 80.937 C 209.174 79.910, 206.385 76, 205.018 76 C 204.649 76, 204.545 77.350, 204.787 79 M 445.223 79.557 C 441.972 81.833, 442.115 87.640, 445.459 89.163 C 447.428 90.061, 448.424 89.952, 450.459 88.619 C 453.697 86.497, 454.067 80.642, 451.066 79.035 C 448.500 77.662, 447.844 77.720, 445.223 79.557 M 180.198 80.673 C 176.645 82.424, 173.998 86.496, 174.004 90.200 C 174.010 93.842, 177.731 98.990, 181.496 100.563 C 184.544 101.836, 185.411 101.819, 188.914 100.418 C 191.096 99.545, 193.583 97.759, 194.441 96.450 C 196.355 93.529, 196.413 88.129, 194.558 85.681 L 193.179 83.862 188.839 86.566 C 186.453 88.053, 184.323 89.423, 184.107 89.610 C 183.892 89.798, 184.293 90.648, 184.999 91.498 C 186.157 92.894, 186.513 92.894, 188.641 91.499 C 190.660 90.177, 191 90.163, 191 91.406 C 191 95.950, 184.040 97.517, 181.446 93.558 C 178.521 89.093, 180.161 85.855, 186 84.568 C 187.375 84.266, 189.175 83.555, 190 82.990 C 191.300 82.099, 191.242 81.765, 189.559 80.481 C 187.068 78.581, 184.329 78.637, 180.198 80.673 M 461.656 88.866 C 454.208 100.378, 454.346 99.454, 459.548 103.033 C 464.132 106.187, 467 106.379, 467 103.531 C 467 102.689, 466.663 101.986, 466.250 101.968 C 465.837 101.951, 464.691 101.323, 463.702 100.573 L 461.905 99.210 466.547 92.034 L 471.189 84.858 469.344 83.461 C 468.330 82.692, 467.184 82.049, 466.798 82.032 C 466.413 82.014, 464.098 85.090, 461.656 88.866 M 164.156 91.603 L 161.987 93.123 166.691 99.811 C 169.278 103.490, 172.122 107.466, 173.010 108.646 L 174.624 110.792 176.939 109.046 L 179.255 107.299 173.553 99.163 C 170.418 94.688, 167.509 90.814, 167.089 90.555 C 166.669 90.296, 165.350 90.767, 164.156 91.603 M 474.034 98.934 C 471.028 103.258, 468.441 107.179, 468.286 107.648 C 468.021 108.450, 476.822 115, 478.164 115 C 478.506 115, 479.076 114.243, 479.431 113.318 C 479.858 112.205, 479.219 110.937, 477.542 109.568 L 475.007 107.500 480.067 100.657 L 485.127 93.813 483.313 92.438 C 482.316 91.682, 481.050 91.065, 480.500 91.068 C 479.950 91.070, 477.040 94.609, 474.034 98.934 M 153.500 99.110 C 145.637 105.461, 145.477 105.664, 146.943 107.431 C 148.070 108.789, 148.455 108.795, 150.330 107.482 C 151.493 106.667, 152.694 106, 152.998 106 C 153.303 106, 155.739 108.895, 158.412 112.434 L 163.272 118.868 165.627 117.325 C 168.288 115.581, 168.304 115.627, 162.111 107.666 L 157.572 101.831 159.987 100.010 C 162.047 98.456, 162.207 97.955, 161.078 96.594 C 159.304 94.457, 159.231 94.481, 153.500 99.110 M 490.030 105.279 C 486.986 106.819, 482.999 112.562, 483.004 115.398 C 483.010 118.901, 486.830 124.031, 490.608 125.609 C 499.467 129.311, 508.871 119.452, 504.515 111.029 C 502.736 107.589, 497.611 104.001, 494.500 104.018 C 493.400 104.025, 491.389 104.592, 490.030 105.279 M 490.557 112.223 C 489.701 113.445, 489 115.213, 489 116.151 C 489 118.433, 491.685 121, 494.071 121 C 496.556 121, 500 117.556, 500 115.071 C 500 110.273, 493.332 108.261, 490.557 112.223 M 136.763 113.344 C 129.803 119.794, 134.515 127.732, 143.248 124.270 C 147.768 122.478, 150.918 123.189, 148.952 125.557 C 148.252 126.401, 147.125 126.878, 146.446 126.618 C 145.768 126.357, 144.241 127.179, 143.052 128.444 C 141.143 130.477, 141.082 130.817, 142.528 131.372 C 145.986 132.699, 149.236 131.918, 152.077 129.077 C 155.513 125.641, 155.859 121.859, 153 119 C 150.589 116.589, 149.375 116.528, 144.491 118.568 C 142.036 119.594, 140.397 119.797, 139.756 119.156 C 138.478 117.878, 139.821 115.717, 141.495 116.360 C 142.980 116.930, 147.362 112.696, 146.342 111.676 C 144.788 110.121, 139.188 111.096, 136.763 113.344 M 514.090 128.250 C 512.823 132.238, 510.633 136.730, 509.223 138.233 L 506.659 140.966 508.503 143.003 L 510.347 145.041 512.924 142.602 C 514.403 141.201, 518.823 139.204, 523.307 137.911 L 531.113 135.659 528.757 133.303 L 526.402 130.947 522.097 132.466 L 517.792 133.985 518.498 132.242 C 521.165 125.664, 521.242 124.924, 519.459 122.954 C 518.486 121.879, 517.398 121, 517.042 121 C 516.685 121, 515.357 124.263, 514.090 128.250 M 123.093 126.405 C 120.715 128.828, 118.934 131.190, 119.135 131.655 C 119.336 132.120, 122.779 135.627, 126.787 139.450 L 134.074 146.400 138.763 141.711 L 143.451 137.023 141.739 135.311 L 140.028 133.599 137.169 136.338 C 134.619 138.781, 134.168 138.908, 133.008 137.510 C 131.913 136.191, 132.071 135.553, 134 133.500 C 135.929 131.447, 136.087 130.809, 134.992 129.490 C 133.829 128.089, 133.409 128.192, 131.043 130.459 C 128.989 132.426, 128.127 132.727, 127.200 131.800 C 126.273 130.873, 126.599 129.984, 128.655 127.838 C 130.868 125.528, 131.095 124.819, 130.030 123.536 C 128.226 121.363, 127.916 121.491, 123.093 126.405 M 113.683 136.362 L 112.135 138.723 116.589 145.362 C 119.038 149.013, 120.783 152, 120.466 152 C 120.150 152, 116.670 150.630, 112.734 148.955 L 105.577 145.909 103.857 148.190 C 102.911 149.444, 102.353 150.686, 102.617 150.950 C 102.881 151.214, 107.463 153.087, 112.799 155.111 L 122.500 158.792 125.328 156.049 L 128.156 153.306 122.328 143.678 C 119.123 138.383, 116.214 134.039, 115.865 134.025 C 115.516 134.011, 114.534 135.063, 113.683 136.362 M 529.187 152.194 L 519.875 155.179 521.342 157.339 C 522.177 158.568, 523.690 159.401, 524.849 159.272 C 527.722 158.950, 531.289 163.712, 530.508 166.824 C 530.115 168.390, 530.503 169.899, 531.616 171.128 L 533.329 173.021 539.162 164.261 C 542.371 159.442, 544.997 154.782, 544.998 153.905 C 545 151.941, 541.850 148.963, 539.921 149.105 C 539.140 149.162, 534.309 150.552, 529.187 152.194 M 97.610 157.147 L 96.106 159.294 100.303 162.275 C 102.611 163.914, 104.907 165.628, 105.405 166.083 C 105.902 166.538, 103.102 166.641, 99.181 166.312 L 92.052 165.714 90.113 168.107 C 87.699 171.085, 87.956 171.406, 98.071 178.047 L 106.064 183.294 107.500 181.397 C 109.556 178.682, 109.492 178.558, 104.250 175.130 L 99.500 172.024 106.635 172.012 C 113.200 172.001, 113.905 171.793, 115.465 169.413 C 116.397 167.991, 117.011 166.707, 116.830 166.562 C 114.618 164.789, 100.094 155, 99.676 155 C 99.366 155, 98.437 155.966, 97.610 157.147 M 534.750 156.220 C 531.685 157.275, 531.337 158.205, 533.374 159.895 C 534.451 160.790, 535.114 160.474, 536.453 158.431 C 538.518 155.280, 538.301 154.998, 534.750 156.220 M 542.765 169.826 L 534.030 175.572 537.519 180.753 C 539.884 184.264, 541.491 185.749, 542.504 185.360 C 544.416 184.627, 544.401 183.018, 542.458 180.243 L 540.915 178.041 547.958 173.527 C 551.831 171.044, 554.986 168.673, 554.968 168.257 C 554.931 167.369, 552.458 163.982, 551.890 164.040 C 551.675 164.062, 547.569 166.665, 542.765 169.826 M 83.954 178.086 C 83.340 179.233, 82.987 180.308, 83.169 180.475 C 83.351 180.642, 87.473 183.116, 92.328 185.974 L 101.156 191.169 102.546 189.335 C 103.311 188.326, 103.951 187.180, 103.968 186.789 C 104.005 185.968, 87.408 176, 86.005 176 C 85.491 176, 84.568 176.939, 83.954 178.086 M 558.550 177.339 C 557.031 178.450, 556.937 179.014, 557.954 180.915 C 558.619 182.156, 559.013 183.311, 558.831 183.481 C 558.649 183.651, 555.462 185.454, 551.750 187.487 C 548.038 189.520, 545 191.506, 545 191.901 C 545 192.295, 545.607 193.447, 546.348 194.461 L 547.696 196.305 554.854 192.439 L 562.012 188.573 563.563 190.786 C 565.261 193.211, 565.836 193.390, 567.843 192.118 C 568.898 191.450, 568.289 189.683, 565.005 183.883 C 562.706 179.823, 560.718 176.392, 560.589 176.260 C 560.460 176.129, 559.542 176.614, 558.550 177.339 M 74.517 194.967 C 73.133 197.698, 72 200.394, 72 200.957 C 72 201.810, 88.896 211, 90.466 211 C 90.744 211, 92.326 208.315, 93.983 205.034 L 96.995 199.068 94.912 197.953 C 92.517 196.671, 92.753 196.520, 90.619 200.716 C 89.536 202.846, 88.481 203.738, 87.492 203.359 C 85.688 202.666, 85.640 201.884, 87.193 198.475 C 88.166 196.340, 88.120 195.688, 86.943 194.944 C 84.742 193.551, 84.342 193.760, 83 197 C 81.670 200.211, 81.248 200.444, 79.156 199.117 C 78.047 198.415, 78.098 197.712, 79.447 195.103 C 80.346 193.364, 80.812 191.504, 80.482 190.971 C 79.129 188.782, 76.891 190.282, 74.517 194.967 M 561 198.727 C 556.137 201.191, 553.448 206.798, 554.950 211.347 C 557.706 219.699, 566.877 222.366, 572.922 216.575 C 576.750 212.907, 577.728 208.308, 575.568 204.131 C 572.514 198.226, 566.439 195.972, 561 198.727 M 562.223 204.557 C 558.370 207.255, 560.246 214, 564.849 214 C 569.847 214, 572.793 207.936, 569.429 204.571 C 567.437 202.580, 565.052 202.575, 562.223 204.557 M 70.172 210.255 C 67.961 211.319, 63.584 218.532, 62.844 222.329 C 62.574 223.716, 64.519 224.945, 71.901 228.048 C 77.072 230.222, 81.475 232, 81.687 232 C 82.617 232, 86 222.561, 86 219.964 C 86 211.652, 77.767 206.602, 70.172 210.255 M 70.388 217.531 C 68.441 220.502, 68.189 220.168, 74.427 222.893 C 79.705 225.198, 80.953 224.724, 80.985 220.405 C 81.023 215.179, 73.301 213.085, 70.388 217.531 M 572.972 221.533 C 572.273 222.376, 571.485 225.301, 571.223 228.033 C 570.883 231.566, 570.313 233, 569.248 233 C 568.148 233, 567.895 232.270, 568.297 230.250 C 568.598 228.738, 568.291 226.469, 567.615 225.208 L 566.385 222.917 564.558 224.936 C 563.148 226.494, 562.861 227.929, 563.302 231.217 C 564.593 240.841, 576 242.003, 576 232.510 C 576 228.118, 576.874 226, 578.686 226 C 579.775 226, 580 226.722, 579.551 228.769 C 579.162 230.537, 579.495 232.255, 580.471 233.519 L 582 235.500 583.500 233.559 C 585.554 230.901, 585.375 227.127, 583.011 223.250 C 581.402 220.611, 580.391 220, 577.637 220 C 575.771 220, 573.672 220.690, 572.972 221.533 M 61.388 236.980 C 55.806 239.236, 53.386 246.977, 56.425 252.855 C 59.298 258.411, 67.776 259.742, 72.889 255.440 C 82.399 247.438, 72.968 232.301, 61.388 236.980 M 61.571 243.571 C 58.693 246.450, 59.815 250.224, 64.020 251.810 C 66.643 252.798, 71 251.740, 71 250.114 C 71 249.591, 71.260 248.487, 71.577 247.659 C 72.367 245.601, 68.545 242, 65.571 242 C 64.236 242, 62.436 242.707, 61.571 243.571 M 578.321 247.346 C 573.822 248.531, 569.903 249.744, 569.612 250.043 C 569.128 250.537, 571.740 262.045, 572.517 262.841 C 572.700 263.029, 573.746 262.898, 574.843 262.550 C 576.564 262.004, 576.711 261.479, 575.918 258.715 C 574.685 254.416, 574.708 254.310, 576.974 253.717 C 578.578 253.298, 579.066 253.837, 579.585 256.601 C 580.236 260.073, 580.711 260.432, 583.328 259.428 C 584.497 258.979, 584.623 258.171, 583.909 255.684 C 583.409 253.940, 583 252.450, 583 252.373 C 583 252.296, 583.875 252.004, 584.944 251.725 C 586.482 251.323, 587.030 251.874, 587.562 254.358 C 588.481 258.645, 588.701 258.891, 591.075 258.270 C 593.267 257.697, 593.268 257.759, 590.906 248.750 C 589.758 244.370, 589.661 244.359, 578.321 247.346 M 52.571 262.338 C 50.108 264.801, 48.012 274.526, 49.643 275.917 C 50.560 276.699, 69.032 280.311, 69.516 279.803 C 69.675 279.636, 69.961 278.420, 70.152 277.099 C 70.449 275.052, 69.912 274.529, 66.500 273.542 L 62.500 272.385 66.945 270.878 C 70.430 269.696, 71.558 268.746, 72.162 266.485 C 72.587 264.899, 72.772 263.439, 72.575 263.242 C 72.378 263.044, 70.545 263.581, 68.503 264.434 L 64.789 265.986 61.993 262.993 C 58.632 259.395, 55.717 259.192, 52.571 262.338 M 585.517 264.392 C 584.132 265.777, 583 267.859, 583 269.020 C 583 271.829, 581.134 275.201, 579.975 274.485 C 579.466 274.170, 579.317 271.967, 579.643 269.588 C 580.347 264.450, 578.952 263.048, 576.036 265.964 C 570.758 271.242, 576.225 282.650, 583.001 280.500 C 585.392 279.741, 586.505 277.787, 587.414 272.750 C 587.849 270.340, 588.639 269, 589.625 269 C 590.786 269, 591.009 269.683, 590.542 271.811 C 590.202 273.356, 590.316 275.681, 590.796 276.977 L 591.667 279.333 593.950 277.050 C 595.853 275.147, 596.150 274.019, 595.728 270.280 C 595.190 265.503, 593.862 263.623, 590.267 262.545 C 588.633 262.056, 587.357 262.552, 585.517 264.392 M 55.085 268.250 C 54.048 270.995, 54.546 272, 56.942 272 C 58.738 272, 60.409 268.472, 59.393 266.826 C 58.397 265.215, 55.923 266.032, 55.085 268.250 M 47.510 286.750 C 47.161 289.913, 46.643 293.738, 46.358 295.250 C 45.903 297.673, 46.148 298, 48.421 298 C 50.506 298, 51 297.521, 51 295.498 L 51 292.996 59.750 293.248 L 68.500 293.500 68.807 291.342 C 69.146 288.965, 68.229 288.647, 57.649 287.478 L 51.798 286.831 52.226 283.915 C 52.590 281.430, 52.321 281, 50.399 281 C 48.394 281, 48.074 281.638, 47.510 286.750 M 593 284.896 L 593 287.792 585 288.500 L 577 289.208 577 292.104 C 577 295.352, 577.547 295.451, 588.166 294.122 L 593.833 293.413 594.391 296.207 C 594.797 298.233, 595.545 299, 597.117 299 L 599.285 299 598.642 292.853 C 598.289 289.473, 598 285.648, 598 284.353 C 598 282.510, 597.458 282, 595.500 282 C 593.409 282, 593 282.474, 593 284.896 M 46 304.428 C 46 306.628, 46.529 306.922, 51.624 307.559 L 57.248 308.261 51.063 312.193 C 45.705 315.600, 44.921 316.484, 45.190 318.813 L 45.500 321.500 56.250 321.784 L 67 322.068 67 319.084 L 67 316.100 61.250 315.800 L 55.500 315.500 61.250 311.762 C 66.150 308.577, 67 307.580, 67 305.012 L 67 302 56.500 302 L 46 302 46 304.428 M 585.562 302.988 C 579.040 304.244, 576.050 310.471, 579.163 316.316 C 581.237 320.210, 583.200 320.935, 591.750 320.968 L 600 321 600 318 L 600 315 592.700 315 C 583.756 315, 580.990 313.153, 584.571 309.571 C 585.698 308.445, 588.106 308, 593.071 308 L 600 308 600 305 L 600 302 594.750 302.115 C 591.862 302.178, 587.728 302.571, 585.562 302.988 M 63.976 325.646 C 62.850 325.952, 62.551 327.094, 62.831 330.030 C 63.162 333.494, 62.948 334, 61.150 334 C 59.588 334, 58.932 333.155, 58.434 330.500 C 57.959 327.967, 57.255 327, 55.889 327 C 54.397 327, 54 327.735, 54 330.500 C 54 333.333, 53.619 334, 52 334 C 50.328 334, 50 333.333, 50 329.930 C 50 326.397, 49.731 325.903, 47.960 326.180 C 46.839 326.356, 45.939 326.837, 45.960 327.250 C 45.982 327.663, 46 330.768, 46 334.151 L 46 340.301 56.617 339.700 C 62.457 339.369, 67.398 338.936, 67.597 338.736 C 68.198 338.135, 66.759 324.991, 66.105 325.116 C 65.772 325.180, 64.814 325.418, 63.976 325.646 M 578 331.957 C 578 338.578, 578.234 339.388, 580.923 342.077 C 583.316 344.470, 584.690 345, 588.500 345 C 595.290 345, 598.511 341.522, 599.484 333.137 C 599.884 329.694, 600.051 326.726, 599.855 326.542 C 599.660 326.357, 594.663 325.881, 588.750 325.484 L 578 324.761 578 331.957 M 583 333.800 C 583 337.433, 584.657 339, 588.500 339 C 592.143 339, 594 337.452, 594 334.417 C 594 332.034, 591.729 331.037, 586.250 331.014 C 583.354 331.001, 583 331.305, 583 333.800 M 60.782 345.968 C 61.022 347.600, 61.844 349.455, 62.609 350.090 C 64.317 351.508, 64.422 355.178, 62.800 356.800 C 61.086 358.514, 55.480 358.283, 53.945 356.434 C 52.912 355.189, 52.890 354.192, 53.840 351.567 C 54.589 349.495, 54.712 347.396, 54.171 345.933 L 53.308 343.601 50.654 346.255 C 46.751 350.158, 46.876 357.030, 50.923 361.077 C 56.700 366.854, 67.795 363.773, 69.359 355.957 C 70.121 352.145, 68.020 346.828, 64.883 344.631 C 61.433 342.214, 60.286 342.588, 60.782 345.968 M 576.750 347.580 C 576.337 347.994, 576 349.311, 576 350.506 C 576 352.502, 576.772 352.774, 585.442 353.840 C 598.331 355.424, 598 355.469, 598 352.138 L 598 349.276 591.250 348.597 C 587.538 348.224, 582.925 347.673, 581 347.373 C 579.075 347.073, 577.163 347.166, 576.750 347.580 M 578.304 359.956 C 571.943 363.835, 571.665 373.232, 577.770 378.034 C 582.502 381.756, 591.398 379.811, 593.805 374.528 C 598.725 363.731, 588.255 353.889, 578.304 359.956 M 580.200 365.200 C 579.540 365.860, 579 367.570, 579 369 C 579 372.439, 580.717 374, 584.500 374 C 586.205 374, 588.140 373.460, 588.800 372.800 C 590.483 371.117, 590.294 367.436, 588.429 365.571 C 586.569 363.712, 581.899 363.501, 580.200 365.200 M 571.056 382.944 C 568.205 385.795, 567.402 391.438, 569.411 394.504 C 571.966 398.404, 575.903 397.838, 580.456 392.917 C 583.291 389.853, 584.517 389.121, 585.367 389.984 C 586.213 390.843, 586.073 391.450, 584.816 392.379 C 583.890 393.064, 582.829 394.833, 582.458 396.312 C 581.906 398.510, 582.122 398.997, 583.642 398.985 C 586.092 398.964, 587.440 397.995, 588.919 395.187 C 590.953 391.327, 590.578 386.887, 588.046 384.836 C 584.648 382.085, 582.515 382.581, 578.732 387 C 576.849 389.200, 574.789 391, 574.154 391 C 572.521 391, 572.718 388.258, 574.420 387.300 C 575.202 386.860, 576.150 385.262, 576.529 383.750 C 577.116 381.402, 576.909 381, 575.108 381 C 573.949 381, 572.125 381.875, 571.056 382.944 M 563.518 480.625 C 562.625 481.518, 562.030 483.206, 562.197 484.375 C 562.653 487.576, 568.369 487.421, 568.827 484.195 C 569.148 481.926, 567.527 479, 565.949 479 C 565.506 479, 564.412 479.731, 563.518 480.625 M 129.556 487.267 C 121.178 492.013, 119.759 499.583, 124.869 512.276 C 126.591 516.553, 128 521.143, 128 522.476 C 128 525.607, 125.367 527.124, 122.333 525.742 C 119.616 524.504, 118.637 521.981, 119.419 518.228 C 119.895 515.941, 119.167 514.650, 114.914 510.240 C 112.123 507.348, 109.423 505.239, 108.913 505.554 C 106.946 506.769, 104.833 512.409, 104.833 516.444 C 104.833 525.029, 110.879 534.266, 119.218 538.421 C 125.333 541.468, 130.226 541.694, 135.016 539.148 C 143.457 534.662, 145.006 526.842, 139.951 514.220 C 136.373 505.282, 136.325 500.667, 139.805 500.173 C 143.350 499.671, 145.095 501.759, 144.834 506.189 C 144.629 509.665, 145.147 510.623, 149.691 515.168 C 152.860 518.336, 155.236 519.972, 155.991 519.505 C 157.809 518.382, 160.001 512.502, 159.990 508.782 C 159.976 503.874, 155.861 495.993, 151.046 491.653 C 143.328 484.694, 136.543 483.310, 129.556 487.267 M 535.387 488.559 L 532.876 491.851 540.653 503.027 L 548.429 514.203 550.781 511.468 C 552.447 509.531, 552.822 508.422, 552.067 507.667 C 550.400 506, 550.793 503.960, 553.452 500.474 C 555.236 498.135, 556.530 497.365, 558.202 497.647 C 559.807 497.918, 561.058 497.255, 562.348 495.449 C 563.365 494.027, 564.040 492.744, 563.848 492.599 C 563.657 492.453, 557.739 490.744, 550.699 488.801 L 537.898 485.268 535.387 488.559 M 542.867 494.598 C 543.471 495.644, 544.649 497.374, 545.483 498.441 L 547 500.382 548.468 498.441 C 550.479 495.782, 550.371 495.310, 547.593 494.613 C 546.269 494.280, 544.417 493.713, 543.477 493.353 C 542.034 492.799, 541.939 492.993, 542.867 494.598 M 513.763 515.565 C 510.666 517.246, 508 521.738, 508 525.276 C 508 528.211, 511.862 532, 514.854 532 C 516.078 532, 518.915 531.064, 521.159 529.919 C 523.915 528.513, 525.567 528.167, 526.252 528.852 C 527.736 530.336, 526.293 533.326, 524.435 532.614 C 522.804 531.988, 517.797 536.862, 518.651 538.244 C 518.908 538.660, 520.844 539, 522.953 539 C 529.832 539, 535.742 531.118, 533.142 525.412 C 531.153 521.048, 527.727 520.330, 521.399 522.953 C 517.562 524.544, 515.532 524.932, 514.813 524.213 C 513.452 522.852, 514.646 521, 516.885 521 C 517.856 521, 519.731 519.851, 521.049 518.447 C 523.072 516.295, 523.217 515.749, 521.974 514.963 C 519.871 513.633, 516.925 513.849, 513.763 515.565 M 537.384 516.442 C 536.319 519.217, 537.456 521.500, 539.905 521.500 C 542.658 521.500, 544.600 519.005, 543.691 516.636 C 542.912 514.607, 538.144 514.461, 537.384 516.442 M 461.763 522.761 C 458.608 524.818, 456.021 526.909, 456.013 527.409 C 456.006 527.909, 459.593 533.872, 463.985 540.659 C 468.377 547.447, 471.600 553, 471.147 553 C 470.694 553, 462.967 549.688, 453.977 545.641 L 437.632 538.282 431.628 542.162 C 428.326 544.296, 425.455 546.211, 425.249 546.418 C 424.955 546.712, 453.155 591.432, 454.529 592.851 C 455.081 593.421, 467 585.795, 467 584.873 C 467 584.409, 463.428 578.520, 459.062 571.786 C 454.697 565.052, 451.257 559.410, 451.418 559.249 C 451.580 559.087, 459.244 562.320, 468.450 566.433 L 485.189 573.912 491.630 569.844 L 498.071 565.776 495.785 562.013 C 489.207 551.180, 468.431 519.044, 468 519.034 C 467.725 519.028, 464.919 520.705, 461.763 522.761 M 158.509 538.074 C 145.865 546.878, 135.176 554.424, 134.758 554.842 C 134.339 555.261, 136.746 557.543, 140.107 559.913 C 146.597 564.490, 147.111 564.514, 152.580 560.506 L 154.660 558.982 162.080 564.128 C 166.161 566.958, 169.824 569.559, 170.221 569.908 C 170.618 570.257, 170.320 572.610, 169.559 575.136 L 168.177 579.731 174.039 583.865 C 177.264 586.139, 180.297 588, 180.779 588 C 181.261 588, 184.949 575.737, 188.975 560.750 C 193.001 545.763, 196.436 533.050, 196.608 532.500 C 196.913 531.527, 183.820 521.967, 182.274 522.034 C 181.848 522.052, 171.154 529.270, 158.509 538.074 M 172.500 545.580 C 169.200 548.070, 166.133 550.473, 165.685 550.919 C 164.922 551.678, 172.487 558, 174.158 558 C 174.579 558, 175.389 556.313, 175.958 554.250 C 176.528 552.188, 177.648 548.362, 178.449 545.750 C 179.249 543.138, 179.588 541.012, 179.202 541.027 C 178.816 541.041, 175.800 543.090, 172.500 545.580 M 205.192 567.874 C 200.072 580.995, 195.648 592.629, 195.361 593.727 C 194.920 595.412, 195.897 596.147, 201.641 598.446 C 205.383 599.944, 208.581 600.794, 208.749 600.335 C 213.305 587.872, 219.942 572.851, 220.385 574 C 220.703 574.825, 222.341 582.025, 224.026 590 C 225.711 597.975, 227.337 605.490, 227.640 606.699 C 228.043 608.308, 230.047 609.626, 235.102 611.610 C 238.903 613.101, 242.166 614.136, 242.353 613.910 C 242.989 613.145, 262 564.027, 262 563.149 C 262 562.670, 259.637 561.359, 256.750 560.236 C 253.863 559.113, 250.789 557.907, 249.919 557.555 C 248.657 557.045, 247.464 559.198, 244.011 568.208 C 241.632 574.419, 239.015 581.075, 238.197 583 L 236.709 586.500 233.962 573.500 C 232.451 566.350, 230.694 557.956, 230.057 554.847 L 228.898 549.194 221.892 546.597 C 218.038 545.169, 214.799 544.004, 214.693 544.008 C 214.587 544.013, 210.311 554.752, 205.192 567.874 M 396.401 556.680 L 389.301 559.255 388.651 574.287 C 387.802 593.900, 387.817 618, 388.679 618 C 389.053 618, 392.407 617.018, 396.133 615.818 L 402.908 613.636 403.204 608.620 L 403.500 603.604 412.653 600.358 L 421.806 597.112 424.569 601.099 C 426.089 603.292, 427.820 604.908, 428.416 604.690 C 429.012 604.471, 432.531 603.292, 436.236 602.070 L 442.972 599.846 424.640 577.173 C 414.558 564.703, 405.677 554.411, 404.905 554.303 C 404.132 554.194, 400.305 555.264, 396.401 556.680 M 361.657 566.119 C 357.893 566.522, 354.707 566.998, 354.575 567.176 C 354.444 567.354, 355.074 574.925, 355.975 584 C 358.153 605.925, 357.229 609, 348.464 609 C 341.648 609, 340.964 607.517, 338.896 588.253 C 337.907 579.039, 337.075 570.873, 337.049 570.106 C 337.009 568.984, 335.599 568.843, 329.809 569.381 C 325.853 569.749, 322.444 570.222, 322.233 570.434 C 321.589 571.078, 325.076 604.258, 326.181 608 C 327.788 613.441, 331.626 618.417, 336.264 621.074 C 339.739 623.064, 341.848 623.493, 348 623.463 C 354.373 623.431, 356.322 622.981, 360.972 620.463 C 363.981 618.833, 367.470 615.970, 368.724 614.099 C 372.982 607.747, 373.299 604.294, 371.429 584.614 C 370.482 574.651, 369.435 566.249, 369.103 565.942 C 368.772 565.636, 365.421 565.715, 361.657 566.119 M 301.598 569.137 C 301.363 569.886, 300.435 578.375, 299.536 588 C 298.637 597.625, 297.669 606.286, 297.384 607.248 C 296.716 609.505, 292.416 610.590, 290.487 608.989 C 289.669 608.310, 289 606.713, 289 605.439 C 289 603.463, 288.376 603.046, 284.750 602.598 C 271.980 601.024, 272.287 600.856, 273.995 608.479 C 275.981 617.339, 281.386 622.036, 291.312 623.524 C 301.109 624.993, 309.523 619.999, 311.962 611.267 C 313.933 604.208, 316.924 570.575, 315.653 569.765 C 315.019 569.361, 312.700 569.018, 310.500 569.002 C 308.300 568.986, 305.493 568.703, 304.262 568.373 C 302.825 567.988, 301.872 568.261, 301.598 569.137 M 403 581.898 C 403 586.904, 403.370 591, 403.822 591 C 405.226 591, 414 587.839, 414 587.333 C 414 587.070, 411.525 583.691, 408.500 579.825 L 403 572.796 403 581.898" stroke="none" fill="#ffffff" fill-rule="evenodd"/><path d="M 231 129.682 C 224.047 130.400, 207.511 134.219, 200.581 136.707 C 168.498 148.227, 147.364 170.262, 141.591 198.215 C 138.377 213.772, 140.184 226.870, 147.632 242 C 151.763 250.391, 153.604 252.789, 163.404 262.540 C 178.912 277.969, 192.992 287.232, 234 308.985 C 274.266 330.345, 286.387 338.327, 301.543 353.468 C 310.835 362.750, 313.259 365.849, 316.820 373 C 327.309 394.059, 326.121 417.015, 313.568 435.898 C 303.307 451.332, 287.223 460.484, 265.708 463.128 C 226.901 467.897, 185.454 444.678, 162.392 405.250 C 160.381 401.813, 158.451 399, 158.102 399 C 157.753 399, 152.393 404.089, 146.191 410.308 L 134.915 421.616 142.708 428.177 C 166.061 447.841, 195.693 460.918, 231 467.142 C 242.473 469.165, 273.450 468.903, 284 466.695 C 330.288 457.004, 359.283 429.510, 365.089 389.806 C 369.991 356.280, 354.732 325.857, 320.943 301.787 C 308.367 292.828, 297.109 286.428, 265 269.982 C 220.738 247.311, 208.233 239.418, 196.197 226.551 C 192.531 222.633, 188.650 217.045, 186.327 212.345 L 182.500 204.597 182.500 191.972 L 182.500 179.346 186.700 170.923 C 196.343 151.581, 213.343 139.365, 236.096 135.425 C 251.844 132.698, 265.886 134.782, 280.738 142.052 C 299.159 151.070, 317.488 170.493, 329.998 194.255 C 331.372 196.865, 332.730 199, 333.015 199 C 333.300 199, 338.700 193.812, 345.016 187.472 L 356.500 175.943 350.610 170.722 C 324.462 147.539, 295.473 133.920, 264.026 130.044 C 256.064 129.063, 238.821 128.874, 231 129.682 M 124 137.500 C 125.866 139.425, 127.617 141, 127.892 141 C 128.167 141, 126.866 139.425, 125 137.500 C 123.134 135.575, 121.383 134, 121.108 134 C 120.833 134, 122.134 135.575, 124 137.500 M 400.547 135.750 C 403.536 142.627, 410.379 164.389, 412.417 173.500 C 418.632 201.289, 418.371 195.420, 418.769 316.500 C 419.020 392.489, 418.788 430.889, 418.036 438.244 C 414.005 477.677, 395.748 505.818, 364.184 521.253 L 355.500 525.500 362 525.824 C 376.931 526.568, 399.087 522.737, 412.976 517.010 C 436.427 507.340, 453.824 486.888, 461.072 460.471 C 466.375 441.141, 466.221 444.839, 466.973 318.500 L 467.676 200.500 469.826 189.214 C 473.327 170.836, 477.298 156.127, 482.402 142.631 C 483.831 138.853, 485 135.365, 485 134.881 C 485 134.387, 466.292 134, 442.393 134 L 399.786 134 400.547 135.750" stroke="none" fill="#ffdd0e" fill-rule="evenodd"/><path d="M 290 1.579 C 220.263 9.150, 154.884 39.966, 102.908 89.765 C 33.003 156.742, -5.086 254.525, 0.858 351.750 C 5.374 425.613, 30.244 490.156, 76.229 547.357 C 86.954 560.697, 110.726 584.330, 124.500 595.345 C 196.201 652.683, 285.773 676.404, 376 661.948 C 456.690 649.019, 530.185 604.033, 581.070 536.424 C 611.289 496.272, 632.031 449.833, 642.004 400 C 645.354 383.263, 647.997 361.742, 647.999 351.191 C 648 346.573, 648.368 344.110, 649 344.500 C 649.649 344.901, 649.975 340.444, 649.930 331.809 C 649.886 323.442, 649.540 319.243, 649 320.500 C 648.414 321.865, 648.118 320.116, 648.070 314.994 C 647.919 298.786, 643.655 270.512, 637.968 248 C 612.810 148.410, 541.203 64.162, 448.500 25.083 C 406.888 7.542, 368.222 -0.138, 322.778 0.111 C 311.625 0.172, 296.875 0.833, 290 1.579 M 292 10.509 C 185.729 22.357, 94.173 86.466, 44.946 183.500 C -1.090 274.244, -2.578 382.539, 40.947 474.513 C 57.303 509.076, 77.278 537.303, 104.987 565.013 C 154.465 614.490, 211.426 643.219, 281.987 654.283 C 301.698 657.374, 347.302 657.374, 367.013 654.283 C 438.231 643.116, 499.634 611.634, 547.686 561.650 C 598.090 509.218, 628.763 444.009, 637.597 370.500 C 639.887 351.437, 639.879 314.441, 637.579 295.500 C 631.020 241.477, 613.506 193.462, 584.507 150 C 531.019 69.838, 447.149 19.233, 352.576 10.060 C 338.192 8.664, 306.430 8.900, 292 10.509 M 311 24.061 C 250.220 27.240, 190.620 50.236, 141.481 89.469 C 128.473 99.855, 105.630 122.739, 95.035 136 C 58.960 181.149, 36.731 233.494, 28.364 293 C 25.871 310.736, 25.841 356.404, 28.312 374 C 36.621 433.180, 58.995 486.195, 94.568 531 C 105.928 545.307, 133.971 572.455, 149.024 583.716 C 227.751 642.611, 326.484 659.364, 418.860 629.501 C 506.246 601.251, 578.208 530.971, 610.337 442.500 C 622.605 408.718, 627.869 379.737, 628.705 341.371 C 629.284 314.824, 628.480 302.047, 624.878 280.515 C 614.487 218.410, 585.226 160.147, 542.058 115.607 C 480.316 51.904, 398.492 19.485, 311 24.061 M 316 52 L 316 63 322.600 63 L 329.200 63 332.600 59.600 C 335.125 57.075, 335.996 55.338, 335.985 52.850 C 335.952 45.325, 330.578 41.004, 321.250 41.002 L 316 41 316 52 M 290.916 42.778 L 288.332 43.101 289.107 47.800 C 290.380 55.531, 290.199 55.623, 285.066 49.863 C 280.712 44.979, 279.767 44.381, 277.036 44.781 C 274.760 45.115, 274.062 45.668, 274.401 46.868 C 274.654 47.766, 275.410 52.685, 276.080 57.800 C 277.042 65.149, 277.598 66.984, 278.731 66.550 C 279.519 66.247, 280.834 66, 281.654 66 C 282.873 66, 283.031 64.956, 282.522 60.250 L 281.901 54.500 286.701 59.688 C 290.797 64.116, 291.903 64.794, 294.250 64.321 C 295.915 63.985, 296.991 63.123, 296.978 62.133 C 296.942 59.402, 294.352 43.009, 293.912 42.723 C 293.685 42.576, 292.337 42.601, 290.916 42.778 M 339.274 53 C 338.760 58.775, 338.424 63.623, 338.528 63.774 C 338.631 63.925, 341.704 64.328, 345.358 64.669 L 352 65.289 352 62.645 C 352 60.289, 351.618 60, 348.500 60 C 345.667 60, 345 59.619, 345 58 C 345 56.381, 345.667 56, 348.500 56 C 351.333 56, 352 55.619, 352 54 C 352 52.695, 351.333 52, 350.082 52 C 346.928 52, 345.092 50.925, 345.670 49.417 C 346.013 48.524, 347.680 48, 350.177 48 C 353.714 48, 354.105 47.759, 353.820 45.750 C 353.533 43.735, 352.806 43.448, 346.854 43 L 340.209 42.500 339.274 53 M 360 45.288 C 356.245 47.177, 355.952 53.161, 359.492 55.662 C 360.923 56.673, 363.085 58.254, 364.297 59.176 L 366.500 60.851 364.626 61.580 C 363.361 62.072, 362.452 61.772, 361.827 60.654 C 360.711 58.661, 355 58.374, 355 60.311 C 355 64.594, 363.662 68.304, 368.145 65.942 C 374.442 62.623, 373.061 57.634, 364.384 52.354 C 362.824 51.404, 362.725 50.975, 363.812 49.854 C 364.913 48.718, 365.284 48.782, 366.112 50.250 C 367.188 52.158, 373 52.735, 373 50.934 C 373 48.362, 370.698 46.010, 367.238 45.049 C 362.653 43.776, 363.028 43.764, 360 45.288 M 322 51.892 C 322 57.333, 322.218 58, 324 58 C 326.493 58, 330 54.605, 330 52.191 C 330 49.528, 327.872 47.199, 324.750 46.446 L 322 45.783 322 51.892 M 256.152 49.646 C 247.120 54.229, 249.096 68.325, 259.077 70.517 C 266.413 72.128, 274.356 63.639, 272.050 56.653 C 269.694 49.512, 262.588 46.381, 256.152 49.646 M 379.054 57.920 C 375.677 62.942, 373.185 67.490, 373.516 68.026 C 374.337 69.354, 378.343 69.257, 379.725 67.875 C 381.524 66.076, 388 67.690, 388 69.937 C 388 71.690, 392.545 73.788, 393.745 72.588 C 394.252 72.082, 392.285 50.952, 391.675 50.341 C 391.498 50.165, 389.968 49.744, 388.274 49.405 L 385.194 48.789 379.054 57.920 M 240.750 53.696 C 238.426 54.295, 238.522 55.502, 241.729 66.037 C 244.459 75.007, 245.530 76.218, 248.864 74.105 C 249.984 73.395, 249.710 71.488, 247.332 63.443 C 244.414 53.573, 243.941 52.873, 240.750 53.696 M 399.711 63.352 L 396.201 73.834 398.646 74.447 C 401.838 75.248, 402.705 74.620, 403.518 70.917 C 404.339 67.179, 405.114 67.765, 405.922 72.733 C 406.379 75.547, 407.236 76.826, 409.342 77.835 C 410.887 78.576, 412.358 78.975, 412.610 78.723 C 412.863 78.470, 412.645 76.375, 412.126 74.066 C 411.328 70.516, 411.439 69.777, 412.841 69.282 C 418.064 67.438, 419.695 61.657, 415.972 58.189 C 414.857 57.150, 412.111 55.750, 409.868 55.079 C 407.626 54.407, 405.213 53.635, 404.506 53.364 C 403.625 53.026, 402.116 56.170, 399.711 63.352 M 257.626 55.517 C 255.582 57.561, 255.559 59.926, 257.557 62.777 C 259.647 65.762, 263.526 65.653, 265.557 62.553 C 268.944 57.385, 261.957 51.186, 257.626 55.517 M 384.688 59.354 C 382.950 62.006, 383.358 63, 386.186 63 C 387.700 63, 387.918 62.498, 387.378 60.250 C 386.498 56.580, 386.504 56.582, 384.688 59.354 M 226 58.652 C 219.482 60.799, 216.417 65.080, 217.451 70.592 C 218.242 74.806, 222.194 79.581, 225.598 80.435 C 231.382 81.887, 239 76.693, 239 71.298 C 239 69.244, 238.650 68.969, 236.750 69.534 C 235.512 69.902, 233.675 71.282, 232.667 72.602 C 229.463 76.792, 224.868 75.475, 223.570 69.994 C 222.626 66.005, 224.318 64.538, 229.991 64.427 C 236.864 64.293, 238.255 62.735, 233.884 60.070 C 230.511 58.014, 228.845 57.715, 226 58.652 M 302.297 58.795 C 300.707 59.806, 299.375 68, 300.801 68 C 302.218 68, 304.997 65.150, 305.014 63.679 C 305.021 63.030, 305.299 61.487, 305.630 60.250 C 306.255 57.920, 304.725 57.252, 302.297 58.795 M 406.573 61.670 C 405.921 63.369, 407.458 64.957, 409.781 64.985 C 411.674 65.007, 412.514 61.939, 410.896 60.914 C 408.767 59.566, 407.281 59.826, 406.573 61.670 M 419.294 70.750 L 415.182 80.500 417.341 81.715 C 420.475 83.478, 420.742 83.355, 422.136 79.500 C 423.870 74.707, 425 75.111, 425 80.525 C 425 84.462, 425.333 85.176, 427.565 86.025 C 431.285 87.439, 431.307 87.416, 430.759 82.553 C 430.320 78.657, 430.508 78.068, 432.278 77.803 C 433.390 77.636, 435.219 76.263, 436.343 74.752 C 439.479 70.537, 437.834 67.159, 431 63.782 C 427.975 62.287, 425.029 61.050, 424.453 61.032 C 423.877 61.014, 421.556 65.388, 419.294 70.750 M 200.961 69.461 L 198.422 70.843 199.510 81.388 C 200.109 87.187, 200.821 92.155, 201.093 92.426 C 202.387 93.720, 206 91.615, 206 89.569 C 206 88.016, 207.093 86.849, 209.720 85.596 C 212.162 84.432, 213.566 84.197, 213.804 84.911 C 214.269 86.307, 216.567 86.302, 219.191 84.898 L 221.250 83.796 213.398 75.898 C 209.080 71.554, 205.086 68.018, 204.523 68.040 C 203.961 68.062, 202.357 68.702, 200.961 69.461 M 426.380 69.452 C 425.611 71.455, 426.752 73, 429 73 C 431.753 73, 432.591 70.906, 430.462 69.348 C 428.097 67.619, 427.073 67.645, 426.380 69.452 M 440.400 76.400 C 437.613 79.187, 437 80.557, 437 84 C 437 87.443, 437.613 88.813, 440.400 91.600 C 443.187 94.387, 444.557 95, 448 95 C 451.443 95, 452.813 94.387, 455.600 91.600 C 458.387 88.813, 459 87.443, 459 84 C 459 80.557, 458.387 79.187, 455.600 76.400 C 452.813 73.613, 451.443 73, 448 73 C 444.557 73, 443.187 73.613, 440.400 76.400 M 204.787 79 C 205.258 82.215, 205.681 82.487, 207.960 81.046 C 209.210 80.255, 209.152 79.825, 207.555 78.061 C 204.993 75.230, 204.269 75.475, 204.787 79 M 445 80 C 442.346 82.654, 442.448 86.500, 445.223 88.443 C 448.083 90.447, 448.592 90.408, 451 88 C 453.654 85.346, 453.552 81.500, 450.777 79.557 C 447.917 77.553, 447.408 77.592, 445 80 M 179.893 80.497 C 173.262 84.101, 172.041 91.948, 177.250 97.482 C 181.930 102.453, 187.978 102.691, 192.894 98.099 C 195.347 95.808, 195.993 94.388, 195.968 91.349 C 195.951 89.232, 195.310 86.673, 194.544 85.663 L 193.153 83.826 188.576 86.508 C 183.732 89.347, 183.510 89.677, 184.930 91.921 C 185.696 93.131, 186.214 93.090, 188.415 91.648 C 190.443 90.319, 191 90.249, 191 91.322 C 191 93.311, 187.682 96, 185.228 96 C 181.269 96, 178.394 89.006, 181.200 86.200 C 181.860 85.540, 183.451 85, 184.735 85 C 186.020 85, 188.188 84.268, 189.553 83.373 L 192.036 81.747 190.268 80.405 C 187.973 78.664, 183.188 78.706, 179.893 80.497 M 460.506 90.535 C 457.478 95.229, 455.014 99.391, 455.032 99.785 C 455.090 101.096, 464.269 106.111, 465.645 105.583 C 467.652 104.813, 467.288 102.224, 465 101 C 462.213 99.508, 462.433 98.509, 467.141 91.283 L 471.282 84.927 469.391 83.495 C 468.351 82.708, 467.165 82.049, 466.756 82.032 C 466.347 82.014, 463.534 85.841, 460.506 90.535 M 164.224 91.555 L 162.004 93.111 168.166 102.003 C 173.376 109.521, 174.603 110.748, 176.108 109.942 C 177.087 109.418, 178.162 108.548, 178.495 108.008 C 179.054 107.104, 168.169 90.131, 166.973 90.040 C 166.682 90.018, 165.446 90.700, 164.224 91.555 M 474.244 98.457 C 471.354 102.532, 468.782 106.459, 468.530 107.183 C 468.089 108.446, 475.905 115, 477.851 115 C 480.149 115, 479.972 111.550, 477.573 109.568 L 475.069 107.500 480.113 100.667 L 485.156 93.835 483.328 92.449 C 482.323 91.687, 481.050 91.060, 480.500 91.056 C 479.950 91.051, 477.135 94.382, 474.244 98.457 M 152.250 100.059 C 145.676 105.309, 145.187 106.081, 147.318 107.849 C 148.292 108.658, 149.234 108.524, 150.927 107.339 C 152.234 106.423, 153.493 106.132, 153.859 106.662 C 154.211 107.173, 156.460 110.148, 158.854 113.274 C 162.516 118.054, 163.502 118.802, 165.049 117.974 C 168.374 116.194, 168.137 115.132, 162.942 108.520 L 157.802 101.981 160.119 100.105 C 162.104 98.497, 162.244 97.999, 161.095 96.615 C 160.358 95.727, 159.473 95.015, 159.128 95.034 C 158.782 95.052, 155.688 97.314, 152.250 100.059 M 490.500 104.907 C 486.247 106.766, 483.500 110.946, 483.500 115.561 C 483.500 119.198, 484.068 120.529, 486.769 123.231 C 489.485 125.946, 490.794 126.500, 494.500 126.500 C 498.206 126.500, 499.515 125.946, 502.231 123.231 C 504.946 120.515, 505.500 119.206, 505.500 115.500 C 505.500 111.860, 504.938 110.477, 502.450 107.989 C 499.206 104.745, 493.966 103.393, 490.500 104.907 M 491 112 C 488.446 114.554, 488.457 117.199, 491.030 119.527 C 495.583 123.648, 502.648 116.583, 498.527 112.030 C 496.199 109.457, 493.554 109.446, 491 112 M 137.750 112.080 C 135.239 113.543, 132.789 118.759, 133.524 121.077 C 133.869 122.164, 135.171 123.721, 136.418 124.538 C 138.426 125.854, 139.180 125.848, 143.047 124.483 C 148.129 122.690, 150.934 123.170, 148.999 125.501 C 148.325 126.313, 147.341 126.711, 146.813 126.384 C 146.284 126.058, 144.755 126.821, 143.415 128.080 C 141.599 129.786, 141.300 130.573, 142.239 131.169 C 144.945 132.887, 149.165 131.989, 152.077 129.077 C 155.584 125.569, 155.948 121.168, 152.955 118.460 C 151.149 116.825, 150.397 116.746, 146.514 117.785 C 139.750 119.594, 139.500 119.602, 139.500 118 C 139.500 117.175, 140.247 116.494, 141.160 116.487 C 143.232 116.470, 147.140 113.036, 146.417 111.866 C 145.687 110.684, 139.902 110.827, 137.750 112.080 M 513.580 128.946 C 511.677 134.413, 510.034 137.403, 508.313 138.531 L 505.811 140.170 508.090 142.596 L 510.368 145.021 512.934 142.612 C 514.381 141.253, 518.717 139.304, 522.875 138.143 C 526.931 137.010, 530.430 135.903, 530.650 135.683 C 530.870 135.463, 530.183 134.213, 529.124 132.905 L 527.198 130.527 523.524 131.855 C 521.504 132.586, 519.618 132.951, 519.333 132.667 C 519.049 132.382, 519.392 130.557, 520.096 128.611 C 521.228 125.480, 521.164 124.838, 519.533 123.036 C 518.519 121.916, 517.388 121, 517.018 121 C 516.649 121, 515.101 124.576, 513.580 128.946 M 122.643 126.855 L 117.860 131.711 125.680 138.852 C 129.981 142.780, 133.744 145.995, 134.042 145.997 C 134.340 145.998, 136.572 143.974, 139.003 141.497 L 143.422 136.994 141.725 135.297 L 140.028 133.599 137.169 136.338 C 134.781 138.626, 134.118 138.847, 133.150 137.680 C 132.245 136.590, 132.452 135.694, 134.092 133.611 C 135.812 131.423, 135.967 130.665, 134.942 129.430 C 133.847 128.111, 133.360 128.239, 131.043 130.459 C 128.989 132.426, 128.127 132.727, 127.200 131.800 C 126.273 130.873, 126.599 129.984, 128.655 127.838 C 130.868 125.528, 131.095 124.819, 130.030 123.536 C 129.329 122.691, 128.456 122, 128.090 122 C 127.724 122, 125.273 124.185, 122.643 126.855 M 231 129.682 C 224.047 130.400, 207.511 134.219, 200.581 136.707 C 168.498 148.227, 147.364 170.262, 141.591 198.215 C 138.377 213.772, 140.184 226.870, 147.632 242 C 151.763 250.391, 153.604 252.789, 163.404 262.540 C 178.912 277.969, 192.992 287.232, 234 308.985 C 274.266 330.345, 286.387 338.327, 301.543 353.468 C 310.835 362.750, 313.259 365.849, 316.820 373 C 327.309 394.059, 326.121 417.015, 313.568 435.898 C 303.307 451.332, 287.223 460.484, 265.708 463.128 C 226.901 467.897, 185.454 444.678, 162.392 405.250 C 160.381 401.813, 158.451 399, 158.102 399 C 157.753 399, 152.393 404.089, 146.191 410.308 L 134.915 421.616 142.708 428.177 C 166.061 447.841, 195.693 460.918, 231 467.142 C 242.473 469.165, 273.450 468.903, 284 466.695 C 330.288 457.004, 359.283 429.510, 365.089 389.806 C 369.991 356.280, 354.732 325.857, 320.943 301.787 C 308.367 292.828, 297.109 286.428, 265 269.982 C 220.738 247.311, 208.233 239.418, 196.197 226.551 C 192.531 222.633, 188.650 217.045, 186.327 212.345 L 182.500 204.597 182.500 191.972 L 182.500 179.346 186.700 170.923 C 196.343 151.581, 213.343 139.365, 236.096 135.425 C 251.844 132.698, 265.886 134.782, 280.738 142.052 C 299.159 151.070, 317.488 170.493, 329.998 194.255 C 331.372 196.865, 332.730 199, 333.015 199 C 333.300 199, 338.700 193.812, 345.016 187.472 L 356.500 175.943 350.610 170.722 C 324.462 147.539, 295.473 133.920, 264.026 130.044 C 256.064 129.063, 238.821 128.874, 231 129.682 M 114.278 135.250 C 112.110 138.054, 112.267 138.878, 116.050 144.568 C 118.219 147.831, 119.995 150.812, 119.997 151.193 C 119.999 151.575, 116.737 150.541, 112.750 148.896 L 105.500 145.905 103.710 148.112 C 102.726 149.327, 102.276 150.644, 102.710 151.039 C 103.634 151.881, 123.197 159.216, 123.378 158.789 C 123.445 158.630, 124.555 157.301, 125.844 155.836 L 128.188 153.171 122.344 143.595 C 119.130 138.327, 116.218 134.014, 115.872 134.009 C 115.527 134.004, 114.810 134.563, 114.278 135.250 M 400.547 135.750 C 403.536 142.627, 410.379 164.389, 412.417 173.500 C 418.632 201.289, 418.371 195.420, 418.769 316.500 C 419.020 392.489, 418.788 430.889, 418.036 438.244 C 414.005 477.677, 395.748 505.818, 364.184 521.253 L 355.500 525.500 362 525.824 C 376.931 526.568, 399.087 522.737, 412.976 517.010 C 436.427 507.340, 453.824 486.888, 461.072 460.471 C 466.375 441.141, 466.221 444.839, 466.973 318.500 L 467.676 200.500 469.826 189.214 C 473.327 170.836, 477.298 156.127, 482.402 142.631 C 483.831 138.853, 485 135.365, 485 134.881 C 485 134.387, 466.292 134, 442.393 134 L 399.786 134 400.547 135.750 M 530.750 151.620 C 524.837 153.514, 520 155.430, 520 155.877 C 520 157.472, 523.952 160.232, 525.427 159.666 C 527.603 158.832, 531.223 164.265, 530.475 167.243 C 530.080 168.819, 530.494 170.137, 531.738 171.263 L 533.590 172.939 539.791 163.424 L 545.993 153.909 543.808 150.955 C 542.607 149.330, 541.596 148.040, 541.562 148.088 C 541.528 148.136, 536.663 149.726, 530.750 151.620 M 97.572 157.201 L 96.030 159.402 100.483 162.451 C 102.932 164.128, 104.950 165.777, 104.968 166.116 C 104.985 166.456, 101.937 166.514, 98.194 166.246 L 91.388 165.759 89.614 168.466 C 88.638 169.955, 87.989 171.282, 88.170 171.414 C 92.535 174.602, 105.343 183, 105.839 183 C 106.213 183, 107.138 182.008, 107.895 180.796 C 109.136 178.809, 109.042 178.440, 106.940 177.046 C 105.658 176.196, 103.684 174.727, 102.554 173.783 L 100.500 172.067 107.227 172.033 C 113.340 172.003, 114.108 171.764, 115.648 169.415 C 116.651 167.883, 116.953 166.558, 116.388 166.165 C 108.435 160.620, 99.985 155, 99.602 155 C 99.333 155, 98.420 155.990, 97.572 157.201 M 534.750 156.220 C 531.685 157.275, 531.337 158.205, 533.374 159.895 C 534.451 160.790, 535.114 160.474, 536.453 158.431 C 538.518 155.280, 538.301 154.998, 534.750 156.220 M 543 169.614 C 538.325 172.681, 534.619 175.618, 534.764 176.139 C 534.910 176.660, 536.241 178.979, 537.723 181.293 C 539.205 183.607, 540.509 185.649, 540.623 185.831 C 540.736 186.013, 541.781 185.652, 542.946 185.029 L 545.062 183.896 543.008 181.011 L 540.954 178.127 547.977 173.583 C 551.840 171.085, 555 168.777, 555 168.454 C 555 167.314, 552.919 164, 552.215 164.018 C 551.822 164.028, 547.675 166.546, 543 169.614 M 84.095 177.691 C 83.143 179.781, 83.164 180.493, 84.199 181.168 C 84.914 181.634, 89.049 184.116, 93.386 186.683 L 101.271 191.349 102.636 189.483 C 103.386 188.457, 104 187.284, 104 186.876 C 104 186.320, 90.551 177.775, 85.896 175.374 C 85.564 175.203, 84.754 176.245, 84.095 177.691 M 558.053 177.436 C 557.148 178.527, 557.138 179.389, 558.012 181.022 C 558.644 182.204, 559.013 183.292, 558.831 183.439 C 558.649 183.586, 555.462 185.386, 551.750 187.439 C 544.857 191.251, 544.131 192.274, 546.297 195.120 C 547.406 196.577, 548.218 196.351, 554.352 192.870 C 558.104 190.742, 561.554 189, 562.019 189 C 562.485 189, 563.151 189.900, 563.500 191 C 564.176 193.129, 565.651 193.507, 567.848 192.115 C 568.910 191.442, 568.310 189.648, 565.007 183.631 C 562.704 179.434, 560.465 176, 560.032 176 C 559.599 176, 558.709 176.646, 558.053 177.436 M 74.264 195.420 L 71.194 201.645 80.610 206.322 C 85.789 208.895, 90.239 211, 90.499 211 C 90.759 211, 92.326 208.315, 93.983 205.034 L 96.995 199.068 94.912 197.953 C 92.517 196.671, 92.753 196.520, 90.619 200.716 C 89.536 202.846, 88.481 203.738, 87.492 203.359 C 85.688 202.666, 85.640 201.884, 87.193 198.475 C 88.166 196.340, 88.120 195.688, 86.943 194.944 C 84.742 193.551, 84.342 193.760, 83 197 C 82.317 198.650, 81.348 200, 80.847 200 C 79.098 200, 78.868 197.156, 80.381 194.230 L 81.907 191.279 79.620 190.237 L 77.333 189.195 74.264 195.420 M 561 198.711 C 556.178 201.176, 553.412 206.876, 554.929 211.226 C 557.512 218.636, 563.868 221.580, 570.494 218.436 C 577.576 215.075, 578.933 206.184, 573.201 200.693 C 569.492 197.139, 565.381 196.471, 561 198.711 M 563.228 204.230 C 560.122 205.727, 559.292 209.560, 561.536 212.040 C 563.676 214.405, 565.808 214.524, 568.777 212.443 C 571.473 210.555, 571.658 206.905, 569.171 204.655 C 567.080 202.762, 566.378 202.712, 563.228 204.230 M 68.592 211.250 C 67.207 212.488, 65.154 215.885, 64.032 218.799 L 61.991 224.098 65.245 225.449 C 73.173 228.738, 81.376 232, 81.721 232 C 82.834 232, 85.959 222.958, 85.978 219.684 C 86.006 214.837, 84.695 212.411, 81.020 210.510 C 76.724 208.289, 71.564 208.596, 68.592 211.250 M 70.388 217.531 C 68.458 220.476, 68.360 220.317, 73.372 222.395 C 78.646 224.581, 79.855 224.424, 80.599 221.460 C 82.043 215.707, 73.689 212.493, 70.388 217.531 M 572.972 221.533 C 572.273 222.376, 571.485 225.301, 571.223 228.033 C 570.624 234.261, 568.021 235.122, 568.265 229.012 C 568.462 224.079, 566.946 222.197, 564.636 224.507 C 562.308 226.835, 562.541 233.146, 565.073 236.365 C 569.087 241.469, 576 239.030, 576 232.510 C 576 228.093, 576.876 226, 578.724 226 C 579.791 226, 580.063 226.651, 579.653 228.220 C 578.278 233.476, 581.692 237.313, 583.965 233.066 C 585.529 230.143, 585.210 226.857, 583.011 223.250 C 581.402 220.611, 580.391 220, 577.637 220 C 575.771 220, 573.672 220.690, 572.972 221.533 M 58.400 239.400 C 55.503 242.297, 55 243.491, 55 247.477 C 55 251.313, 55.526 252.679, 57.923 255.077 C 60.356 257.510, 61.655 257.996, 65.673 257.978 C 72.840 257.945, 77 253.835, 77 246.788 C 77 242.767, 74.897 239.515, 70.989 237.494 C 66.140 234.987, 62.220 235.580, 58.400 239.400 M 61.557 244.223 C 60.701 245.445, 60 246.950, 60 247.568 C 60 249.512, 63.826 252.250, 66.542 252.250 C 69.884 252.250, 71.250 250.843, 71.250 247.403 C 71.250 242.269, 64.481 240.048, 61.557 244.223 M 579.815 246.880 C 574.488 248.321, 569.849 249.789, 569.506 250.143 C 568.895 250.771, 571.380 261.713, 572.355 262.688 C 572.627 262.960, 573.746 262.898, 574.843 262.550 C 576.564 262.004, 576.711 261.479, 575.918 258.715 C 574.652 254.300, 574.722 254, 577.025 254 C 578.475 254, 579.220 254.852, 579.650 257 C 580.267 260.086, 580.761 260.412, 583.328 259.428 C 584.497 258.979, 584.623 258.171, 583.909 255.684 C 583.409 253.940, 583 252.398, 583 252.257 C 583 252.115, 583.880 252, 584.955 252 C 586.397 252, 587.082 252.918, 587.566 255.500 C 588.223 259.003, 589.348 259.700, 591.816 258.135 C 592.893 257.452, 592.832 256.138, 591.477 250.900 C 590.567 247.380, 589.749 244.446, 589.661 244.380 C 589.572 244.315, 585.142 245.440, 579.815 246.880 M 52.540 261.955 C 51.567 263.031, 50.206 266.619, 49.515 269.929 C 48.395 275.295, 48.435 275.999, 49.879 276.427 C 52.939 277.333, 69.179 280.155, 69.449 279.827 C 69.597 279.647, 70.016 278.262, 70.378 276.750 C 70.948 274.375, 70.729 273.990, 68.769 273.930 C 67.521 273.891, 65.611 273.512, 64.526 273.088 C 62.870 272.441, 63.265 272.078, 66.971 270.843 C 70.441 269.686, 71.557 268.750, 72.162 266.485 C 72.587 264.899, 72.794 263.461, 72.623 263.290 C 72.452 263.119, 70.497 263.619, 68.279 264.402 L 64.246 265.824 62.093 262.912 C 59.524 259.437, 55.211 259.005, 52.540 261.955 M 586.280 263.020 C 585.029 263.523, 583.790 265.133, 583.442 266.707 C 582.192 272.365, 581.311 274.488, 580.417 274 C 579.913 273.725, 579.645 271.634, 579.822 269.354 C 580.206 264.410, 578.826 263.174, 576.036 265.964 C 573.052 268.948, 573.265 275.356, 576.455 278.545 C 581.069 283.160, 586.212 280.623, 587.482 273.106 C 587.923 270.493, 588.706 269, 589.633 269 C 590.751 269, 590.941 269.798, 590.449 272.418 C 590.097 274.297, 590.241 276.608, 590.769 277.552 C 591.657 279.139, 591.893 279.107, 593.865 277.135 C 596.948 274.052, 596.788 267.697, 593.545 264.455 C 590.925 261.834, 589.786 261.609, 586.280 263.020 M 55.085 268.250 C 54.048 270.995, 54.546 272, 56.942 272 C 58.801 272, 60.014 269.508, 59.254 267.250 C 58.568 265.210, 56.001 265.826, 55.085 268.250 M 47.508 285.750 C 47.170 288.363, 46.653 292.188, 46.359 294.250 L 45.824 298 48.412 298 C 50.506 298, 51 297.523, 51 295.500 C 51 292.700, 51.813 292.584, 62.280 293.890 L 68.059 294.612 68.665 292.199 C 69.407 289.243, 67.782 288.040, 63 288.004 C 61.075 287.990, 57.771 287.692, 55.658 287.343 C 52.111 286.757, 51.848 286.489, 52.235 283.854 C 52.590 281.432, 52.311 281, 50.388 281 C 48.438 281, 48.037 281.662, 47.508 285.750 M 594.750 281.746 C 593.591 282.011, 593 283.100, 593 284.969 L 593 287.792 585 288.500 L 577 289.208 577 292.156 L 577 295.104 585.360 294.426 L 593.720 293.748 594.379 296.374 C 594.827 298.158, 595.706 299, 597.123 299 L 599.208 299 598.503 290.750 C 597.746 281.881, 597.433 281.132, 594.750 281.746 M 46 304.375 C 46 306.845, 48.791 307.987, 54.875 308.010 C 57.104 308.018, 56.558 308.616, 51.250 311.984 C 45.834 315.420, 45 316.353, 45 318.975 L 45 322 56 322 L 67 322 67 319.050 L 67 316.100 61.250 315.800 L 55.500 315.500 61.222 312 C 66.273 308.910, 66.947 308.119, 66.972 305.250 L 67 302 56.500 302 L 46 302 46 304.375 M 585.274 302.722 C 578.396 303.578, 575.382 313.473, 580.455 318.545 C 582.678 320.769, 583.715 321, 591.455 321 L 600 321 600 318 L 600 315 592.535 315 C 586.183 315, 584.916 314.712, 584.037 313.069 C 582.212 309.659, 585.168 308, 593.071 308 L 600 308 600 305 L 600 302 594.250 302.160 C 591.087 302.248, 587.048 302.501, 585.274 302.722 M 0.392 333 C 0.392 340.425, 0.549 343.462, 0.742 339.750 C 0.934 336.038, 0.934 329.962, 0.742 326.250 C 0.549 322.538, 0.392 325.575, 0.392 333 M 63.500 325.765 C 62.950 326.169, 62.500 328.069, 62.500 329.986 C 62.500 334.980, 59.488 335.413, 58.575 330.550 C 58.082 327.921, 57.402 327, 55.955 327 C 54.387 327, 54 327.694, 54 330.500 C 54 333.333, 53.619 334, 52 334 C 50.328 334, 50 333.333, 50 329.930 C 50 326.397, 49.731 325.903, 47.960 326.180 C 46.839 326.356, 45.939 326.837, 45.960 327.250 C 45.982 327.663, 46 330.768, 46 334.151 L 46 340.301 56.617 339.700 C 62.457 339.369, 67.425 338.908, 67.658 338.675 C 67.891 338.442, 67.776 335.270, 67.403 331.626 C 66.757 325.329, 65.883 324.015, 63.500 325.765 M 578 331.957 C 578 338.578, 578.234 339.388, 580.923 342.077 C 583.316 344.470, 584.690 345, 588.500 345 C 595.290 345, 598.511 341.522, 599.484 333.137 C 599.884 329.694, 600.051 326.726, 599.855 326.542 C 599.660 326.357, 594.663 325.881, 588.750 325.484 L 578 324.761 578 331.957 M 583 333.066 C 583 336.920, 584.870 339, 588.335 339 C 592.133 339, 594 337.490, 594 334.417 C 594 332.034, 591.729 331.037, 586.250 331.014 C 583.628 331.003, 583 331.399, 583 333.066 M 60.615 345.750 C 60.975 347.262, 61.883 349.210, 62.634 350.079 C 65.824 353.766, 63.573 358, 58.422 358 C 53.845 358, 52.315 355.782, 53.889 351.430 C 55.125 348.012, 54.648 344, 53.005 344 C 50.963 344, 48 349.446, 48 353.201 C 48 360.401, 51.170 363.919, 57.703 363.968 C 63.419 364.011, 66.602 362.359, 68.498 358.364 C 70.673 353.780, 69.610 348.691, 65.811 345.494 C 61.767 342.092, 59.769 342.190, 60.615 345.750 M 576.750 347.580 C 576.337 347.994, 576 349.325, 576 350.538 C 576 352.897, 576.075 352.916, 591.750 354.591 L 598 355.258 598 352.267 L 598 349.276 591.250 348.597 C 587.538 348.224, 582.925 347.673, 581 347.373 C 579.075 347.073, 577.163 347.166, 576.750 347.580 M 577.770 359.966 C 569.041 366.832, 573.566 380, 584.654 380 C 588.294 380, 589.712 379.442, 592.077 377.077 C 594.468 374.686, 595 373.309, 595 369.511 C 595 363.835, 593.827 361.479, 590.020 359.510 C 585.988 357.425, 580.753 357.620, 577.770 359.966 M 580.200 365.200 C 578.244 367.156, 578.747 371.794, 581.049 373.026 C 586.737 376.070, 592.626 370.560, 588.527 366.030 C 586.493 363.782, 582.060 363.340, 580.200 365.200 M 572.229 381.669 C 571.530 381.951, 570.292 383.468, 569.479 385.041 C 564.571 394.532, 573.063 401.273, 580.136 393.500 C 581.888 391.575, 583.924 390, 584.661 390 C 586.575 390, 586.315 391.286, 584 393.268 C 581.092 395.758, 581.362 399, 584.477 399 C 589.520 399, 592.357 389.262, 588.542 385.046 C 585.199 381.352, 581.267 382.611, 577.316 388.640 C 576.466 389.938, 575.147 391, 574.385 391 C 572.572 391, 572.598 388.326, 574.420 387.300 C 575.202 386.860, 576.150 385.262, 576.529 383.750 C 577.098 381.476, 576.895 381.014, 575.358 381.079 C 574.336 381.122, 572.928 381.388, 572.229 381.669 M 563.750 480.080 C 559.721 482.427, 563.118 489.077, 567.224 486.880 C 569.476 485.675, 569.615 480.450, 567.418 479.607 C 565.527 478.881, 565.888 478.835, 563.750 480.080 M 130.180 486.682 C 121.106 491.153, 119.363 499.875, 124.953 512.833 C 128.610 521.308, 128.677 525.333, 125.168 525.830 C 120.866 526.440, 117.080 520.407, 119.909 517.450 C 120.465 516.868, 118.705 514.176, 115.365 510.500 L 109.913 504.500 107.969 506.845 C 103.380 512.382, 103.523 520.098, 108.369 528.366 C 116.314 541.923, 131.791 545.168, 140.297 535.059 C 144.080 530.563, 143.970 524.018, 139.939 513.653 C 136.654 505.208, 136.502 502.330, 139.250 500.607 C 142.164 498.780, 144.500 501.070, 144.500 505.754 C 144.500 509.208, 145.215 510.517, 149.698 515.265 C 154.404 520.249, 155.032 520.616, 156.320 519.136 C 158.917 516.151, 160 513.177, 160 509.034 C 160 503.448, 157.956 498.996, 152.826 493.409 C 145.652 485.596, 137.373 483.137, 130.180 486.682 M 535.435 488.496 L 532.855 491.879 540.503 502.939 C 544.709 509.023, 548.469 514, 548.859 514 C 549.250 514, 550.286 512.763, 551.163 511.250 C 552.334 509.230, 552.495 507.930, 551.772 506.354 C 550.357 503.271, 554.521 497.675, 557.767 498.296 C 559.440 498.616, 560.613 497.948, 562.136 495.809 C 563.281 494.201, 564.057 492.735, 563.859 492.551 C 563.662 492.368, 559.900 491.233, 555.500 490.030 C 551.100 488.826, 545.366 487.228, 542.758 486.477 L 538.016 485.113 535.435 488.496 M 543.029 494.901 C 543.544 495.781, 544.649 497.374, 545.483 498.441 L 547 500.382 548.468 498.441 C 550.546 495.694, 550.451 495.534, 546.046 494.358 C 542.533 493.420, 542.196 493.481, 543.029 494.901 M 511.533 517.533 C 507.349 521.718, 506.732 526.732, 510 530 C 512.549 532.549, 516.027 532.537, 521.074 529.962 C 525.188 527.863, 527 528.046, 527 530.559 C 527 531.916, 525.898 532.395, 523.427 532.115 C 521.789 531.930, 517.701 536.707, 518.454 537.926 C 518.819 538.517, 520.951 539, 523.191 539 C 526.566 539, 527.841 538.388, 530.632 535.429 C 534.575 531.248, 534.984 527.521, 531.927 523.635 C 529.463 520.501, 527.004 520.362, 521.141 523.022 C 515.698 525.492, 515 525.489, 515 523 C 515 521.730, 515.667 521, 516.826 521 C 519.114 521, 523.439 516.519, 522.546 515.074 C 522.181 514.483, 520.349 514, 518.474 514 C 515.907 514, 514.195 514.871, 511.533 517.533 M 537.071 516.868 C 536.486 517.961, 536.265 519.528, 536.581 520.350 C 538.154 524.451, 544.320 522.602, 543.810 518.183 C 543.408 514.699, 538.721 513.785, 537.071 516.868 M 461.288 523.021 L 455.077 527 463.176 539.529 C 467.630 546.420, 471.087 552.246, 470.858 552.476 C 470.629 552.705, 463.066 549.576, 454.052 545.523 L 437.663 538.154 432.081 541.684 C 429.012 543.626, 426.113 545.576, 425.639 546.018 C 424.970 546.643, 450.618 588.427, 454.111 592.401 C 454.971 593.380, 465.928 587.246, 466.674 585.369 C 466.920 584.747, 463.513 578.578, 459.102 571.659 C 452.909 561.948, 451.584 559.279, 453.290 559.951 C 454.506 560.430, 462.215 563.790, 470.422 567.417 L 485.344 574.011 491.708 569.864 C 495.209 567.584, 497.944 565.401, 497.786 565.013 C 497.045 563.187, 468.438 519.032, 468 519.037 C 467.725 519.040, 464.705 520.832, 461.288 523.021 M 158.597 537.962 C 146.001 546.731, 135.299 554.301, 134.815 554.785 C 133.906 555.694, 144.867 564, 146.976 564 C 147.612 564, 149.603 562.879, 151.398 561.510 L 154.663 559.019 162.718 564.728 L 170.773 570.436 169.416 574.947 C 168.669 577.428, 168.382 579.758, 168.779 580.125 C 169.176 580.492, 172.178 582.650, 175.451 584.921 L 181.401 589.049 189.222 560.379 C 193.524 544.611, 196.921 531.625, 196.771 531.521 C 196.622 531.417, 193.518 529.233, 189.873 526.666 C 186.228 524.100, 182.853 522.004, 182.373 522.009 C 181.893 522.014, 171.194 529.193, 158.597 537.962 M 172.315 545.825 C 168.913 548.396, 165.843 550.794, 165.494 551.154 C 165.145 551.513, 166.948 553.244, 169.500 555 C 172.052 556.756, 174.280 558.037, 174.450 557.846 C 175.239 556.965, 179.696 541.009, 179.135 541.075 C 178.786 541.116, 175.717 543.253, 172.315 545.825 M 205.533 566.750 C 200.633 579.263, 196.050 590.908, 195.349 592.629 L 194.074 595.759 200.287 598.016 C 203.704 599.257, 206.982 600.453, 207.572 600.675 C 208.162 600.896, 211.042 594.997, 213.985 587.539 C 216.923 580.092, 219.592 574, 219.917 574 C 220.242 574, 222.032 581.313, 223.894 590.250 C 225.757 599.188, 227.628 607.175, 228.051 608 C 228.766 609.392, 241.708 614.663, 242.442 613.860 C 243.148 613.088, 262 564.365, 262 563.312 C 262 562.359, 249.056 556.600, 248.408 557.265 C 248.282 557.394, 245.854 563.350, 243.012 570.500 C 240.170 577.650, 237.498 583.860, 237.073 584.300 C 236.648 584.740, 235.300 580.015, 234.077 573.800 C 232.854 567.585, 231.190 559.525, 230.378 555.889 L 228.903 549.278 222.177 546.639 C 218.477 545.188, 215.224 544, 214.946 544 C 214.669 544, 210.433 554.237, 205.533 566.750 M 396.405 556.611 L 389.310 559.063 388.655 574.191 C 387.802 593.886, 387.816 618, 388.679 618 C 389.053 618, 392.407 617.018, 396.133 615.818 L 402.908 613.636 403.204 608.628 L 403.500 603.620 412.757 600.597 L 422.014 597.574 423.426 599.537 C 424.202 600.617, 425.437 602.295, 426.169 603.266 L 427.500 605.032 435.257 602.423 L 443.015 599.814 438.757 594.527 C 436.416 591.618, 428.200 581.332, 420.500 571.669 C 412.800 562.006, 405.825 554.113, 405 554.129 C 404.175 554.145, 400.307 555.262, 396.405 556.611 M 361.754 566.036 C 358.043 566.379, 354.829 566.849, 354.612 567.080 C 354.394 567.311, 354.971 574.987, 355.893 584.137 C 358.114 606.168, 357.249 609, 348.294 609 C 341.920 609, 340.621 606.281, 339.090 589.745 C 338.416 582.460, 337.603 574.753, 337.283 572.617 L 336.702 568.735 329.733 569.319 C 325.899 569.641, 322.562 570.105, 322.316 570.350 C 321.688 570.979, 324.930 603.753, 326.041 608 C 329.133 619.819, 341.463 626.247, 354.871 623.031 C 364.067 620.825, 370.495 614.345, 372.442 605.318 C 373.166 601.964, 370.216 566.889, 369.132 565.956 C 368.784 565.657, 365.464 565.693, 361.754 566.036 M 301.601 569.137 C 301.368 569.886, 300.429 578.150, 299.515 587.500 C 298.601 596.850, 297.617 605.496, 297.327 606.714 C 296.240 611.291, 289 610.258, 289 605.526 C 289 603.410, 288.433 603.051, 284.250 602.522 C 281.637 602.192, 278.280 601.729, 276.789 601.494 C 275.298 601.258, 273.808 601.502, 273.478 602.036 C 272.386 603.802, 274.199 612, 276.406 615.277 C 282.767 624.720, 300.118 626.728, 307.923 618.923 C 311.882 614.964, 312.555 612.108, 314.855 589.500 C 316.290 575.394, 316.493 570.311, 315.644 569.765 C 315.015 569.361, 312.700 569.018, 310.500 569.002 C 308.300 568.986, 305.493 568.703, 304.262 568.373 C 302.824 567.988, 301.873 568.261, 301.601 569.137 M 403 581.892 L 403 591.135 405.250 590.425 C 406.488 590.034, 408.979 589.204, 410.786 588.581 L 414.072 587.447 408.536 580.048 L 403 572.649 403 581.892" stroke="none" fill="#046434" fill-rule="evenodd"/></svg>