<svg id="visual" viewBox="0 0 960 450" width="960" height="450" xmlns="http://www.w3.org/2000/svg" xmlns:xlink="http://www.w3.org/1999/xlink" version="1.1"><path d="M0 341L32 328.5C64 316 128 291 192 286.3C256 281.7 320 297.3 384 292.8C448 288.3 512 263.7 576 278C640 292.3 704 345.7 768 368C832 390.3 896 381.7 928 377.3L960 373L960 0L928 0C896 0 832 0 768 0C704 0 640 0 576 0C512 0 448 0 384 0C320 0 256 0 192 0C128 0 64 0 32 0L0 0Z" fill="#0c512b"></path><path d="M0 274L32 262.8C64 251.7 128 229.3 192 219.2C256 209 320 211 384 231C448 251 512 289 576 284C640 279 704 231 768 217.2C832 203.3 896 223.7 928 233.8L960 244L960 0L928 0C896 0 832 0 768 0C704 0 640 0 576 0C512 0 448 0 384 0C320 0 256 0 192 0C128 0 64 0 32 0L0 0Z" fill="#305b2e"></path><path d="M0 121L32 124C64 127 128 133 192 132.2C256 131.3 320 123.7 384 133.7C448 143.7 512 171.3 576 178.3C640 185.3 704 171.7 768 176C832 180.3 896 202.7 928 213.8L960 225L960 0L928 0C896 0 832 0 768 0C704 0 640 0 576 0C512 0 448 0 384 0C320 0 256 0 192 0C128 0 64 0 32 0L0 0Z" fill="#496433"></path><path d="M0 107L32 109C64 111 128 115 192 128.5C256 142 320 165 384 169.3C448 173.7 512 159.3 576 152C640 144.7 704 144.3 768 140.3C832 136.3 896 128.7 928 124.8L960 121L960 0L928 0C896 0 832 0 768 0C704 0 640 0 576 0C512 0 448 0 384 0C320 0 256 0 192 0C128 0 64 0 32 0L0 0Z" fill="#777744"></path><path d="M0 45L32 57.5C64 70 128 95 192 92.5C256 90 320 60 384 60.2C448 60.3 512 90.7 576 90.8C640 91 704 61 768 57.3C832 53.7 896 76.3 928 87.7L960 99L960 0L928 0C896 0 832 0 768 0C704 0 640 0 576 0C512 0 448 0 384 0C320 0 256 0 192 0C128 0 64 0 32 0L0 0Z" fill="#3a913f"></path></svg>





